<svg width="198" height="64" viewBox="0 0 198 64" fill="none" xmlns="http://www.w3.org/2000/svg">
<path d="M91.2734 24.3984V22.9609H86.5391V24.7344H88.9844L88.9766 24.9375C88.9297 26.2969 87.8594 27.2109 86.3125 27.2109C84.4531 27.2109 83.2812 25.7422 83.2812 23.3281C83.2812 20.9609 84.3984 19.5156 86.2188 19.5156C87.5312 19.5156 88.4766 20.1797 88.8281 21.3203H91.1719C90.8438 18.9766 88.8828 17.4375 86.2188 17.4375C82.9375 17.4375 80.8672 19.7188 80.8672 23.3516C80.8672 27.0391 82.9219 29.2891 86.2734 29.2891C89.3516 29.2891 91.2734 27.4141 91.2734 24.3984Z" fill="#949494"/>
<path d="M95.8984 19.6328H97.9453C99.1172 19.6328 99.8516 20.3047 99.8516 21.375C99.8516 22.4609 99.1562 23.1016 97.9688 23.1016H95.8984V19.6328ZM95.8984 24.9141H97.8281L99.9297 29H102.602L100.227 24.5469C101.523 24.0312 102.273 22.7812 102.273 21.3438C102.273 19.1016 100.75 17.7266 98.2734 17.7266H93.5391V29H95.8984V24.9141Z" fill="#949494"/>
<path d="M111.891 29H114.445L110.531 17.7266H107.758L103.844 29H106.211L107.078 26.3125H111.039L111.891 29ZM109 20.0703H109.141L110.539 24.4922H107.586L109 20.0703Z" fill="#949494"/>
<path d="M116.367 17.7266V29H118.727V25.5H120.953C123.328 25.5 124.977 23.9453 124.977 21.625C124.977 19.2812 123.391 17.7266 121.07 17.7266H116.367ZM118.727 19.6641H120.445C121.805 19.6641 122.578 20.3516 122.578 21.6328C122.578 22.8984 121.789 23.5859 120.438 23.5859H118.727V19.6641Z" fill="#949494"/>
<path d="M136.945 29V17.7266H134.586V22.2734H129.508V17.7266H127.148V29H129.508V24.2891H134.586V29H136.945Z" fill="#949494"/>
<path d="M142.039 29V17.7266H139.68V29H142.039Z" fill="#949494"/>
<path d="M149.562 29.2891C152.281 29.2891 154.266 27.6094 154.461 25.1719H152.164C151.938 26.4141 150.922 27.2109 149.57 27.2109C147.789 27.2109 146.688 25.7344 146.688 23.3594C146.688 20.9844 147.789 19.5156 149.562 19.5156C150.906 19.5156 151.93 20.3672 152.156 21.6641H154.453C154.281 19.2109 152.234 17.4375 149.562 17.4375C146.289 17.4375 144.273 19.6953 144.273 23.3594C144.273 27.0312 146.297 29.2891 149.562 29.2891Z" fill="#949494"/>
<path d="M163.516 29H166.07L162.156 17.7266H159.383L155.469 29H157.836L158.703 26.3125H162.664L163.516 29ZM160.625 20.0703H160.766L162.164 24.4922H159.211L160.625 20.0703Z" fill="#949494"/>
<path d="M175.367 26.9453H170.352V17.7266H167.992V29H175.367V26.9453Z" fill="#949494"/>
<path d="M81.3672 35.7266V47H83.7266V43.5H85.9531C88.3281 43.5 89.9766 41.9453 89.9766 39.625C89.9766 37.2812 88.3906 35.7266 86.0703 35.7266H81.3672ZM83.7266 37.6641H85.4453C86.8047 37.6641 87.5781 38.3516 87.5781 39.6328C87.5781 40.8984 86.7891 41.5859 85.4375 41.5859H83.7266V37.6641Z" fill="#949494"/>
<path d="M94.5078 37.6328H96.5547C97.7266 37.6328 98.4609 38.3047 98.4609 39.375C98.4609 40.4609 97.7656 41.1016 96.5781 41.1016H94.5078V37.6328ZM94.5078 42.9141H96.4375L98.5391 47H101.211L98.8359 42.5469C100.133 42.0312 100.883 40.7812 100.883 39.3438C100.883 37.1016 99.3594 35.7266 96.8828 35.7266H92.1484V47H94.5078V42.9141Z" fill="#949494"/>
<path d="M108.188 35.4375C104.867 35.4375 102.758 37.7031 102.758 41.3594C102.758 45.0156 104.836 47.2891 108.188 47.2891C111.516 47.2891 113.609 45.0156 113.609 41.3594C113.609 37.7109 111.508 35.4375 108.188 35.4375ZM108.188 37.5078C110.016 37.5078 111.195 39 111.195 41.3594C111.195 43.7109 110.023 45.2188 108.188 45.2188C106.328 45.2188 105.172 43.7109 105.172 41.3594C105.172 39 106.352 37.5078 108.188 37.5078Z" fill="#949494"/>
<path d="M115.078 43.6875C115.078 45.8984 116.594 47.2891 118.906 47.2891C121.297 47.2891 122.734 45.9297 122.734 43.5V35.7266H120.375V43.4844C120.375 44.5938 119.844 45.1797 118.875 45.1797C117.969 45.1797 117.375 44.5938 117.359 43.6875H115.078Z" fill="#949494"/>
<path d="M132.945 44.9844H127.836V42.2422H132.656V40.375H127.836V37.7422H132.945V35.7266H125.477V47H132.945V44.9844Z" fill="#949494"/>
<path d="M140.219 47.2891C142.938 47.2891 144.922 45.6094 145.117 43.1719H142.82C142.594 44.4141 141.578 45.2109 140.227 45.2109C138.445 45.2109 137.344 43.7344 137.344 41.3594C137.344 38.9844 138.445 37.5156 140.219 37.5156C141.562 37.5156 142.586 38.3672 142.812 39.6641H145.109C144.938 37.2109 142.891 35.4375 140.219 35.4375C136.945 35.4375 134.93 37.6953 134.93 41.3594C134.93 45.0312 136.953 47.2891 140.219 47.2891Z" fill="#949494"/>
<path d="M152.148 47V37.7422H155.531V35.7266H146.406V37.7422H149.789V47H152.148Z" fill="#949494"/>
<path d="M159.977 47V35.7266H157.617V47H159.977Z" fill="#949494"/>
<path d="M167.641 35.4375C164.32 35.4375 162.211 37.7031 162.211 41.3594C162.211 45.0156 164.289 47.2891 167.641 47.2891C170.969 47.2891 173.062 45.0156 173.062 41.3594C173.062 37.7109 170.961 35.4375 167.641 35.4375ZM167.641 37.5078C169.469 37.5078 170.648 39 170.648 41.3594C170.648 43.7109 169.477 45.2188 167.641 45.2188C165.781 45.2188 164.625 43.7109 164.625 41.3594C164.625 39 165.805 37.5078 167.641 37.5078Z" fill="#949494"/>
<path d="M177.562 47V39.9453H177.703L182.906 47H184.859V35.7266H182.602V42.75H182.461L177.273 35.7266H175.305V47H177.562Z" fill="#949494"/>
<path d="M187.094 43.8672C187.18 45.9688 188.922 47.2891 191.609 47.2891C194.438 47.2891 196.18 45.8984 196.18 43.625C196.18 41.875 195.203 40.8984 192.938 40.4219L191.578 40.1328C190.258 39.8516 189.719 39.4531 189.719 38.7578C189.719 37.8984 190.5 37.3516 191.68 37.3516C192.82 37.3516 193.648 37.9453 193.758 38.8359H195.977C195.906 36.8281 194.148 35.4375 191.664 35.4375C189.062 35.4375 187.352 36.8359 187.352 38.9609C187.352 40.6797 188.359 41.75 190.414 42.1797L191.883 42.4922C193.266 42.7891 193.828 43.2031 193.828 43.9219C193.828 44.7734 192.961 45.3672 191.734 45.3672C190.406 45.3672 189.484 44.7812 189.375 43.8672H187.094Z" fill="#949494"/>
<path fill-rule="evenodd" clip-rule="evenodd" d="M63.6164 36.97C61.2285 52.2829 47.9826 64 32 64C14.3269 64 0 49.6731 0 32L63.6164 36.97ZM63.6164 27.03L0 32C0 14.3269 14.3269 0 32 0C47.9826 0 61.2285 11.7171 63.6164 27.03Z" fill="#949494"/>
</svg>
